<?xml version="1.0" standalone="no"?><!DOCTYPE svg PUBLIC "-//W3C//DTD SVG 1.1//EN" "http://www.w3.org/Graphics/SVG/1.1/DTD/svg11.dtd"><svg t="1724603104745" class="icon" viewBox="0 0 1024 1024" version="1.1" xmlns="http://www.w3.org/2000/svg" p-id="8396" xmlns:xlink="http://www.w3.org/1999/xlink" width="200" height="200"><path d="M693.333333 490.666667m64 0l64 0q64 0 64 64l0 256q0 64-64 64l-64 0q-64 0-64-64l0-256q0-64 64-64Z" fill="#2F54EB" p-id="8397"></path><path d="M416 149.333333m64 0l64 0q64 0 64 64l0 597.333334q0 64-64 64l-64 0q-64 0-64-64l0-597.333334q0-64 64-64Z" fill="#2F54EB" p-id="8398"></path><path d="M138.666667 362.666667m64 0l64 0q64 0 64 64l0 384q0 64-64 64l-64 0q-64 0-64-64l0-384q0-64 64-64Z" fill="#2F54EB" p-id="8399">

</path></svg>